<mxfile host="app.diagrams.net" modified="2022-03-06T07:54:58.725Z" agent="5.0 (Windows NT 10.0; Win64; x64) AppleWebKit/537.36 (KHTML, like Gecko) Chrome/99.0.4844.51 Safari/537.36 Edg/99.0.1150.30" etag="58v7o53S3dAh7-6nTHUf" version="16.6.6" type="github">
  <diagram id="ZedTMQsdEsUZhtXi1KBW" name="Page-1">
    <mxGraphModel dx="782" dy="446" grid="1" gridSize="10" guides="1" tooltips="1" connect="1" arrows="1" fold="1" page="1" pageScale="1" pageWidth="827" pageHeight="1169" math="0" shadow="0">
      <root>
        <mxCell id="0" />
        <mxCell id="1" parent="0" />
        <mxCell id="TgjuOaiopgb37luxDvPf-4" style="edgeStyle=orthogonalEdgeStyle;rounded=0;orthogonalLoop=1;jettySize=auto;html=1;entryX=0;entryY=0.25;entryDx=0;entryDy=0;exitX=1;exitY=0.25;exitDx=0;exitDy=0;" edge="1" parent="1" source="TgjuOaiopgb37luxDvPf-2" target="TgjuOaiopgb37luxDvPf-3">
          <mxGeometry relative="1" as="geometry" />
        </mxCell>
        <mxCell id="TgjuOaiopgb37luxDvPf-2" value="Client" style="rounded=1;whiteSpace=wrap;html=1;fillColor=#dae8fc;strokeColor=#6c8ebf;" vertex="1" parent="1">
          <mxGeometry x="80" y="120" width="120" height="60" as="geometry" />
        </mxCell>
        <mxCell id="TgjuOaiopgb37luxDvPf-6" style="edgeStyle=orthogonalEdgeStyle;rounded=0;orthogonalLoop=1;jettySize=auto;html=1;entryX=1;entryY=0.75;entryDx=0;entryDy=0;exitX=0;exitY=0.75;exitDx=0;exitDy=0;" edge="1" parent="1" source="TgjuOaiopgb37luxDvPf-3" target="TgjuOaiopgb37luxDvPf-2">
          <mxGeometry relative="1" as="geometry" />
        </mxCell>
        <mxCell id="TgjuOaiopgb37luxDvPf-3" value="AuthServer" style="rounded=1;whiteSpace=wrap;html=1;fillColor=#d5e8d4;strokeColor=#82b366;" vertex="1" parent="1">
          <mxGeometry x="440" y="120" width="120" height="60" as="geometry" />
        </mxCell>
        <mxCell id="TgjuOaiopgb37luxDvPf-5" value="1.构造url重定向到AuthServer" style="text;html=1;strokeColor=none;fillColor=none;align=center;verticalAlign=middle;whiteSpace=wrap;rounded=0;" vertex="1" parent="1">
          <mxGeometry x="200" y="104" width="240" height="30" as="geometry" />
        </mxCell>
        <mxCell id="TgjuOaiopgb37luxDvPf-8" value="2.验证参数，生成code重定向到redict_url" style="text;html=1;strokeColor=none;fillColor=none;align=center;verticalAlign=middle;whiteSpace=wrap;rounded=0;" vertex="1" parent="1">
          <mxGeometry x="200" y="166" width="240" height="30" as="geometry" />
        </mxCell>
      </root>
    </mxGraphModel>
  </diagram>
</mxfile>
